<?xml version="1.0" encoding="utf-8"?>
<!-- Generator: Adobe Illustrator 19.1.0, SVG Export Plug-In . SVG Version: 6.00 Build 0)  -->
<svg version="1.1" id="Layer_1" xmlns="http://www.w3.org/2000/svg" xmlns:xlink="http://www.w3.org/1999/xlink" x="0px" y="0px"
	 viewBox="0 0 125 125" style="enable-background:new 0 0 125 125;" xml:space="preserve">
<style type="text/css">
	.st0{fill:#4C4C4C;}
</style>
<g id="U818zC.tif">
	<g>
		<path class="st0" d="M54.3,34.1c5.2-5.2,10.3-10.4,15.6-15.4c3.8-3.6,8.5-5.5,13.7-6.1c11.8-1.6,23.2,4.9,27.9,15.9
			c1.8,4.1,2.4,8.4,2,12.9c-0.6,6.3-3.2,11.8-7.7,16.3C99.5,63.8,93.3,70.1,87,76.3c-4.1,4-8.9,6.6-14.6,7.4
			c-10.8,1.7-21.2-3.3-26.6-12.2c-0.2-0.4-0.3-0.7,0.1-1c2.7-2.7,5.4-5.4,8.1-8.1c0.4-0.4,0.9-0.7,1.5-1.1c0.1,0.3,0.2,0.5,0.3,0.6
			c1.9,5.2,5.7,8.2,11.2,8.8c4.1,0.5,7.7-0.8,10.6-3.7C84,60.8,90.4,54.4,96.7,48c3.7-3.8,4.7-8.4,3-13.4c-1.6-5-5.2-8-10.3-8.9
			c-4.4-0.8-8.3,0.4-11.6,3.5c-2.2,2.1-4.3,4.3-6.4,6.4c-0.3,0.3-0.5,0.3-0.8,0.2c-4.2-1.6-8.6-2.2-13.2-2
			C56.4,33.9,55.4,34,54.3,34.1z"/>
		<path class="st0" d="M81.7,53.4c-0.2,0.2-0.3,0.4-0.5,0.5c-2.7,2.7-5.4,5.4-8.2,8.1c-0.4,0.4-0.9,0.7-1.4,1.1
			c-0.1-0.3-0.2-0.5-0.2-0.7c-2-5.2-5.7-8.2-11.2-8.8c-4-0.5-7.6,0.7-10.5,3.6C43.3,63.7,36.8,70,30.5,76.5c-3.7,3.8-4.6,8.4-3,13.4
			c1.6,4.9,5.1,7.9,10.3,8.9c4.5,0.8,8.4-0.4,11.6-3.5c2.2-2.1,4.3-4.2,6.4-6.4c0.3-0.3,0.6-0.4,1-0.2c4.2,1.5,8.5,2.2,12.9,1.9
			c1-0.1,2-0.1,3.1-0.2c-0.1,0.1-0.1,0.2-0.2,0.3c-4.7,4.7-9.4,9.5-14.3,14.2c-4,3.9-8.8,6.2-14.3,7c-13.8,2-26.7-6.7-29.7-20.4
			c-2-9,0.2-17.2,6.5-23.9c6.5-6.8,13.2-13.4,19.9-20c4-3.9,8.9-6.2,14.4-6.9c9.1-1.1,16.9,1.6,23.2,8.3
			C79.6,50.4,80.6,51.9,81.7,53.4z"/>
	</g>
</g>
</svg>
