<?xml version="1.0" encoding="utf-8"?>
<!-- Generator: Adobe Illustrator 19.1.0, SVG Export Plug-In . SVG Version: 6.00 Build 0)  -->
<svg version="1.1" id="Layer_1" xmlns="http://www.w3.org/2000/svg" xmlns:xlink="http://www.w3.org/1999/xlink" x="0px" y="0px"
	 viewBox="0 0 125 125" style="enable-background:new 0 0 125 125;" xml:space="preserve">
<style type="text/css">
	.st0{fill:#4C4C4C;}
</style>
<g>
	<path class="st0" d="M27.9,112.3l1.5-7.5h1.8c1.5,0,2.9-0.1,4.3-0.3c1.4-0.2,2.7-0.6,3.8-1.2c1.1-0.6,2.1-1.4,3-2.5
		c0.8-1.1,1.4-2.6,1.8-4.4l14.6-68.8c0.2-0.5,0.3-1.1,0.4-1.7c0.1-0.6,0.2-1.1,0.2-1.5c0-1-0.3-1.8-0.8-2.5
		c-0.5-0.6-1.2-1.1-2.1-1.5c-0.9-0.3-2-0.6-3.2-0.7c-1.3-0.1-2.6-0.2-4.1-0.2h-1.8l1.5-7.4h48.4l-1.6,7.4h-1.8c-1.6,0-3,0.1-4.5,0.3
		s-2.7,0.6-3.9,1.2c-1.2,0.6-2.2,1.5-3.1,2.6c-0.9,1.1-1.5,2.6-1.8,4.4L66.1,96.9c-0.1,0.5-0.2,1.1-0.3,1.7
		c-0.1,0.6-0.2,1.1-0.2,1.5c0,1,0.3,1.8,0.8,2.4c0.5,0.6,1.2,1.1,2.1,1.4c0.9,0.3,2,0.6,3.2,0.7c1.3,0.1,2.6,0.2,4.1,0.2h1.8
		l-1.6,7.5H27.9z"/>
</g>
</svg>
