<?xml version="1.0" encoding="utf-8"?>
<!-- Generator: Adobe Illustrator 19.1.0, SVG Export Plug-In . SVG Version: 6.00 Build 0)  -->
<svg version="1.1" id="Layer_1" xmlns="http://www.w3.org/2000/svg" xmlns:xlink="http://www.w3.org/1999/xlink" x="0px" y="0px"
	 viewBox="0 0 125 125" style="enable-background:new 0 0 125 125;" xml:space="preserve">
<style type="text/css">
	.st0{fill:#4C4C4C;}
</style>
<g>
	<path class="st0" d="M106.6,18.8h-5.3c-0.8,0-1.6,0.1-2.4,0.3c-0.8,0.2-1.4,0.6-2,1.1c-0.6,0.6-1,1.4-1.3,2.4
		c-0.3,1-0.5,2.4-0.5,4.2v47.9c0,4.1-0.6,7.8-1.8,11.1c-1.2,3.3-3,6.1-5.5,8.3c-2.5,2.3-5.7,4-9.6,5.2c-3.9,1.2-8.5,1.8-13.9,1.8
		c-5.4,0-10.1-0.5-14.4-1.5c-4.2-1-7.8-2.6-10.7-4.9c-2.9-2.2-5.1-5.1-6.7-8.7c-1.5-3.5-2.3-7.8-2.3-12.9v-47c0-1.6-0.2-2.9-0.5-3.9
		c-0.3-1-0.8-1.7-1.4-2.2c-0.6-0.5-1.2-0.9-2-1c-0.7-0.2-1.5-0.3-2.4-0.3h-5.3v-6.5h42.4v6.5H56c-0.8,0-1.6,0.1-2.4,0.3
		c-0.8,0.2-1.4,0.6-2,1.1c-0.6,0.6-1,1.4-1.3,2.4c-0.3,1-0.5,2.4-0.5,4.2v47.5c0,3.4,0.4,6.3,1.3,8.7c0.9,2.3,2.1,4.2,3.7,5.6
		c1.6,1.4,3.5,2.4,5.8,3.1c2.2,0.6,4.8,0.9,7.6,0.9c2.7,0,5.2-0.3,7.4-1c2.2-0.7,4.1-1.8,5.6-3.3c1.5-1.5,2.7-3.4,3.6-5.6
		c0.8-2.3,1.3-5,1.3-8.1V26.3c0-1.6-0.2-2.9-0.5-3.9c-0.3-1-0.8-1.7-1.3-2.2c-0.6-0.5-1.3-0.9-2-1c-0.8-0.2-1.6-0.3-2.4-0.3h-5.2
		v-6.5h32.2V18.8z"/>
	<path class="st0" d="M16.8,112.3v-6.1h91.8v6.1H16.8z"/>
</g>
</svg>
