<?xml version="1.0" encoding="utf-8"?>
<!-- Generator: Adobe Illustrator 19.1.0, SVG Export Plug-In . SVG Version: 6.00 Build 0)  -->
<svg version="1.1" id="Layer_1" xmlns="http://www.w3.org/2000/svg" xmlns:xlink="http://www.w3.org/1999/xlink" x="0px" y="0px"
	 viewBox="0 0 125 125" style="enable-background:new 0 0 125 125;" xml:space="preserve">
<style type="text/css">
	.st0{fill:#4C4C4C;}
</style>
<g>
	<path class="st0" d="M100.7,37.7c0,3.1-0.4,5.8-1.3,8.1c-0.8,2.3-2,4.3-3.6,6c-1.6,1.7-3.4,3.1-5.6,4.3c-2.2,1.2-4.6,2.2-7.2,3v0.7
		c3.2,0.8,6.2,1.9,8.9,3.4c2.7,1.4,5,3.2,6.9,5.3c1.9,2.1,3.4,4.5,4.5,7.2c1.1,2.7,1.6,5.8,1.6,9.2c0,9.2-3.4,16.1-10.1,20.6
		c-6.7,4.5-16.7,6.8-30,6.8H19.7v-7.5h5.7c1,0,2-0.1,2.9-0.3c0.9-0.2,1.7-0.6,2.3-1.3c0.6-0.6,1.2-1.5,1.5-2.7
		c0.4-1.2,0.6-2.8,0.6-4.8V28.6c0-1.9-0.2-3.4-0.6-4.5c-0.4-1.2-0.9-2.1-1.6-2.7c-0.7-0.6-1.4-1.1-2.3-1.3c-0.9-0.3-1.8-0.4-2.8-0.4
		h-5.7v-7.4h40.9c13.3,0,23.3,2.1,30,6.2S100.7,29,100.7,37.7z M54.8,55.7h5.3c3.3,0,6-0.3,8.2-1c2.2-0.7,3.9-1.7,5.2-3.2
		c1.3-1.4,2.2-3.3,2.8-5.6c0.5-2.3,0.8-5,0.8-8.2c0-3.2-0.3-5.9-0.9-8c-0.6-2.1-1.6-3.9-3-5.2c-1.4-1.3-3.1-2.3-5.3-2.8
		c-2.2-0.6-4.9-0.9-8-0.9h-5.1V55.7z M54.8,103.7h9.3c3.1,0,5.7-0.3,7.9-1c2.2-0.7,4-1.8,5.3-3.3c1.4-1.5,2.4-3.5,3-6
		c0.6-2.5,0.9-5.5,0.9-9c0-3.4-0.3-6.4-0.8-8.9c-0.5-2.5-1.5-4.6-2.8-6.3c-1.3-1.6-3.1-2.9-5.2-3.7c-2.1-0.8-4.8-1.2-8.1-1.2h-9.6
		V103.7z"/>
</g>
</svg>
