<?xml version="1.0" encoding="utf-8"?>
<!-- Generator: Adobe Illustrator 19.1.0, SVG Export Plug-In . SVG Version: 6.00 Build 0)  -->
<svg version="1.1" id="Layer_1" xmlns="http://www.w3.org/2000/svg" xmlns:xlink="http://www.w3.org/1999/xlink" x="0px" y="0px"
	 viewBox="0 0 125 125" style="enable-background:new 0 0 125 125;" xml:space="preserve">
<style type="text/css">
	.st0{fill:#4C4C4C;}
</style>
<g>
	<g>
		<g>
			<path class="st0" d="M18.1,87.5h1.2c0.3,0,0.7,0,1-0.1c0.3,0,0.6-0.1,0.9-0.3c0.3-0.1,0.5-0.3,0.6-0.6c0.2-0.2,0.2-0.6,0.2-1
				c0-0.5-0.2-0.9-0.6-1.3c-0.4-0.3-0.9-0.5-1.5-0.5c-0.6,0-1,0.2-1.4,0.5c-0.4,0.3-0.6,0.7-0.7,1.1l-3.9-0.8
				c0.2-0.7,0.5-1.4,0.9-1.9c0.4-0.5,0.8-0.9,1.4-1.2c0.5-0.3,1.1-0.6,1.7-0.7c0.6-0.2,1.3-0.2,2-0.2c0.7,0,1.5,0.1,2.2,0.3
				c0.7,0.2,1.3,0.5,1.8,0.9c0.5,0.4,0.9,0.9,1.2,1.5c0.3,0.6,0.5,1.3,0.5,2.1c0,0.9-0.2,1.7-0.7,2.4c-0.5,0.7-1.2,1.1-2.1,1.3V89
				c0.5,0.1,1,0.2,1.3,0.5c0.4,0.2,0.7,0.5,1,0.9c0.3,0.3,0.5,0.7,0.6,1.2c0.1,0.4,0.2,0.9,0.2,1.4c0,0.8-0.2,1.6-0.5,2.2
				c-0.3,0.6-0.8,1.2-1.3,1.6c-0.5,0.4-1.2,0.7-1.9,0.9c-0.7,0.2-1.5,0.3-2.3,0.3c-1.5,0-2.8-0.3-3.9-1c-1.1-0.7-1.8-1.8-2.2-3.3
				l3.8-0.9c0.1,0.6,0.4,1.1,0.8,1.4c0.4,0.3,1,0.5,1.7,0.5c0.8,0,1.4-0.2,1.7-0.6c0.4-0.4,0.6-0.9,0.6-1.6c0-0.5-0.1-0.8-0.3-1.1
				c-0.2-0.3-0.5-0.5-0.8-0.6c-0.3-0.1-0.7-0.2-1.1-0.2c-0.4,0-0.8,0-1.2,0h-0.8V87.5z"/>
		</g>
	</g>
	<rect x="37.4" y="28.3" class="st0" width="75.8" height="12.6"/>
	<rect x="37.4" y="55.7" class="st0" width="75.8" height="12.6"/>
	<rect x="37.4" y="83" class="st0" width="75.8" height="12.6"/>
	<g>
		<path class="st0" d="M18.7,30l-3.5,3.1l-2.1-2.4l5.7-4.8h3.4v17.4h-3.5V30z"/>
	</g>
	<g>
		<path class="st0" d="M13.8,66.8l6.7-6c0.3-0.3,0.7-0.7,1-1c0.3-0.4,0.5-0.8,0.5-1.4c0-0.6-0.2-1-0.6-1.4c-0.4-0.3-0.9-0.5-1.5-0.5
			c-0.7,0-1.2,0.2-1.6,0.6c-0.4,0.4-0.6,0.9-0.6,1.5L14,58.5c0-0.9,0.2-1.7,0.6-2.3c0.3-0.7,0.7-1.2,1.3-1.6c0.5-0.4,1.2-0.8,1.9-1
			c0.7-0.2,1.5-0.3,2.3-0.3c0.8,0,1.5,0.1,2.2,0.3c0.7,0.2,1.3,0.5,1.8,1c0.5,0.4,0.9,1,1.2,1.6c0.3,0.6,0.4,1.4,0.4,2.2
			c0,0.5-0.1,1-0.2,1.5c-0.1,0.4-0.3,0.8-0.5,1.2c-0.2,0.4-0.4,0.7-0.7,1c-0.3,0.3-0.6,0.6-0.9,0.9l-5.2,4.5h7.6v3.2h-12V66.8z"/>
	</g>
</g>
</svg>
